<svg height="179.546212" viewBox="0 0 40.264923 13.001794" width="556.959677" xmlns="http://www.w3.org/2000/svg"><g transform="translate(-129.96731 -260.34103)"><path d="m136.46752 273.21053c3.51813 0 6.36929-2.85117 6.36929-6.36792 0-3.51813-2.85116-6.36929-6.36929-6.36929-3.51676 0-6.36792 2.85116-6.36792 6.36929 0 3.51675 2.85116 6.36792 6.36792 6.36792" fill="#d7dee1"/><path d="m136.46752 260.73652c-3.37206 0-6.10471 2.73403-6.10471 6.10609s2.73265 6.10471 6.10471 6.10471 6.10608-2.73265 6.10608-6.10471-2.73402-6.10609-6.10608-6.10609" fill="#0c234c"/><path d="m139.84233 262.3571c-.90123-.90262-2.10013-1.40009-3.37481-1.40009-1.27331 0-2.47221.49747-3.37344 1.40009-.90124.90399-1.39733 2.10426-1.39733 3.38308 0 0 0 2.26688.001 2.29719 0 .001-.001.001-.001.003h.001c.0234 1.24161.51676 2.40606 1.39595 3.28662.90124.90399 2.10013 1.40147 3.37344 1.40147 1.27468 0 2.47358-.49748 3.37481-1.40147.88057-.88332 1.37391-2.05052 1.39595-3.29627l.001-2.2903c0-1.27882-.4961-2.47909-1.39734-3.38308m-.0909 8.87319c-.87781.87781-2.04363 1.36288-3.28386 1.36288-1.24024 0-2.40606-.48507-3.28249-1.36288-.85438-.85714-1.33532-1.98851-1.35874-3.19567.0179-.33624.073-.66422.1626-.98117.71383 1.83693 2.48599 3.05925 4.46623 3.05925 1.99402 0 3.77031-1.22508 4.47586-3.06751.0937.31144.15435.6339.17915.96324-.0179 1.21681-.49885 2.35783-1.35875 3.22186m-7.69089-4.38223c.23702-.71796.65319-1.36839 1.21956-1.89618.86541-.80615 2.00367-1.24988 3.20257-1.24988 1.1727 0 2.29718.45062 3.1681 1.26918.56224.52778.97841 1.16995 1.22508 1.87275-.64492 1.87827-2.4157 3.13779-4.4111 3.13779-1.983 0-3.75102-1.25814-4.40421-3.13366m9.05095.37897c-.22186-.88333-.69728-1.69361-1.38217-2.33716-.89435-.8406-2.05052-1.30362-3.25492-1.30362-1.23335 0-2.40193.45613-3.29076 1.28433-.67662.62976-1.14377 1.43178-1.35875 2.31372v-1.44005c0-1.24436.48232-2.41294 1.36013-3.29213.87643-.87919 2.04225-1.36288 3.28249-1.36288 1.24023 0 2.40743.48369 3.28386 1.36288s1.36012 2.04777 1.36012 3.29213zm0 0" fill="#d7dee1"/><path d="m135.39265 261.95471c.24942-.0634.60496-.0937.60496-.0937l.46991.96463.46991-.96463s.32246.0289.60495.0937l.42995 1.25953.0965-1.11621c.31695.0882.60495.21221.9536.39825.31281.16812.36656.35829.34175.55397-.001.003-.0275.19844-.26045.11438-.006 0 .40515.21497.31557.61736-.0344.14469-.17776.21773-.39549.0951-.19431-.11162-.41066-.22737-.66835-.32797-.44924-.17501-.77859-.23151-.77859-.23151l-.0909-.26734c-.29628-.0606-.62839-.0813-.62839-.0813l-.10749.23702c-.15847-.007-.40101-.007-.56499 0l-.10749-.23702c-.28801.0152-.62838.0813-.62838.0813l-.0909.26734c-.14883.0303-.29766.0661-.47405.11989l.0262-.0827c-.29077.23013-.54019.33486-.54019.33762-.18879.0909-.70556.35278-.83096.10059-.0386-.0592-.0358-.18052-.0358-.18052.15434-.1006.37483-.21359.53055-.30041 0 0-.0785.31833.24391.14607.11438-.0551.23427-.13642.28801-.25769.0744-.20809-.15434-.16813-.23978-.14194-.14607.0427-.68351.226-.68626-.1378-.001-.25908.34864-.52366.72347-.678.56086-.23151.75378-.0207.73863.15434-.22738.062-.27561.0799-.46854.1447.004-.0648-.0441-.16261-.28112-.0648-.23151.113-.29076.20395-.25769.30179.0427.13091.40514-.008.49472-.0276.50849-.10886.44234.23427.44097.24254 0 0 .35967-1.03904.36242-1.03904m.14056.83922c.0992-.0207.27699-.0469.43684-.062-.001.003-.24116-.52917-.24116-.52917zm2.87046.45889c.13366.051.35966.16261.46853.22462 0 0 .113.0841.1695.011.0427-.0854.011-.17088-.17777-.27148-.12264-.0703-.35278-.1695-.43959-.20532zm.0469-.52779s.1943.0799.32522.14194c.0496.0234.0785.0469.13642.051.0469-.005.0634-.0331.0689-.0565.0152-.12816-.1323-.18604-.18191-.21222-.14331-.0717-.18741-.091-.32935-.14883 0 .003-.0193.22462-.0193.22462m-1.48553.007c.15434.0152.2508.0262.43684.062.001.001-.19568-.59118-.19568-.59118zm0 0" fill="#d7ab3a"/><path d="m134.1345 266.74202c.15434.0716.27836.12126.41479.10197.3073-.0441.39963-.16536.68213-.0827.12815.0372.22875.14332.22875.14332s-.073-.0262-.15296-.0317c-.30042-.0165-.54157.2136-.83647.13918-.26459-.0689-.33624-.27009-.33624-.27009" fill="#d7dee1"/><path d="m135.81157 266.78336c-.0978.0854-.31419.54708-.8599.28663-.0165.0551.0193.23427.10474.35829.0744.11851.27009.1695.41065.15434-.1695.15572-.0579.39274-.0413.7469.0951-.19431.26596-.27837.26596-.27837s-.17363.31557-.17501.48231c-.0124.26597.26183.4961.50161.8475.0703-.41066.0537-.55949.12953-.79926.0634.14194.13091.84198.10749 1.12034.41203-.33073.8847-.33899.67524-1.20716.1254.15572.24391.46991.27836.65319.1943-.31557.65181-.51814.30179-1.35186.19017.1571.25907.42582.33624.52779.0551-.40101.28388-1.01148-.21497-1.47174l.003-.003c.1254.04.2825.15296.37069.28249-.003-.35829.226-.56362-.27836-1.18236.0937-.15434.15985-.33761.18741-.52365-.19017.022-.41617.062-.58015.14745-.007-.0152-.0427-.0827-.13367-.0923h-1.45797c-.10059 0-.1943.13505-.2508.3955-.004-.003-.051-.04-.11438-.0648-.17776-.0675-.59393-.0717-.7152.30868-.0703.17777-.0138.48921-.0138.48921s.45475-.34038.67662.0551m.33762-.39826c-.073-.0427-.12541-.17914-.0372-.24804.062-.0496.24253.0427.10749.18603.12539.073.19843-.0469.20256-.0896l.0441-.003c-.0179.0882-.14194.27009-.31694.15434" fill="#d7dee1"/><path d="m137.19099 265.39016c.0496 0 .0882.0317.0882.0317l.57189-1.23886c-.61737 0-.3955.40928-.38586.43409.01.0234-.0317.0124-.0317.0124-.0372-.0372-.0896-.0593-.14608-.0593-.11851 0-.21635.0951-.21635.21221 0 .11852.0978.2136.21635.2136.0179 0 .0372-.001.0537-.007 0 0-.41617.39688-.74966-.11576-.0262-.04.0345.0455.13092.0455.11851-.001.21359-.0965.21359-.2136 0-.11713-.0951-.21359-.21359-.21359-.0455 0-.0868.0152-.12127.0386v-.003c.0496-.0386.0813-.0992.0813-.16812 0-.11713-.0951-.21221-.21359-.21221l-.003-.001c-.11713 0-.21221.0951-.21221.21359 0 .0675.0317.12816.0813.16675v.004c-.0345-.0248-.0772-.0386-.12264-.0386-.11714 0-.21222.0951-.21222.21359 0 .11714.0951.21222.21222.21222.0978 0 .15847-.0841.13229-.0455-.33487.51262-.75103.11713-.75103.11713.0179.004.0358.007.0551.007.11713 0 .21222-.0951.21222-.2136 0-.11713-.0951-.21221-.21222-.21221-.0565 0-.10887.022-.14745.0579 0 0-.0413.011-.0303-.0124.01-.0234.23013-.43407-.38723-.43407l.57326 1.24023s.0386-.0317.0882-.0317zm0 0" fill="#d7ab3a"/><path d="m137.87449 266.78749c.0331-.13367.0179-.32384-.27285-.63528-.0923.10198-.1943.19293-.29766.27699.0358.38034.051.96187-.26733 1.26642 0 0 .004-.24667-.13643-.51677-.0138.339-.16536.68489-.47267.89435 0 0 .0524-.23427.0179-.64906-.0496.15434-.17226.31006-.35692.37207l-.0786-.42856s.15297-.10887.15297-.11301c0 .004.0496.24392.0496.24392.1626-.15434.0345-.39963.18741-.45475.0827-.0262.1254.0358.15158.0868.0717.14745.073.27423.0758.43546.0965-.226.1006-.44786.0661-.7028-.011-.0868.0303-.13229.0813-.14745.0551-.011.0978.0193.13504.0634.0965.11989.15986.27837.19844.41893.062-.2136.0703-.51815-.005-.73037-.01-.0413-.0221-.0868-.0221-.0868.22186-.18741.42443-.4079.54156-.68626-.31005.0923-.71658.33762-.71658.33762l-.0841-.0896.32109-.2508c.0207-.0152.0289-.0386-.0289-.04l-1.18787.001c-.11162 0-.22324.0358-.22462.22462l.14883.1254s.1819-.0675.35553.0524l-.0221.10197s-.0772-.0537-.11575-.0234c-.0978.25219-.26183.28802-.3955.2384-.14745-.0606-.17087-.23426-.19292-.32797-.25494-.14745-.65319-.17087-.68351.27837.27147-.12403.54984.0276.62425.17914l.70831.20533c-.24115.18052-.56637.75103-.96463.56499.27699.30042.58567-.0744.68351.0827.1006.16674-.36242.20946-.28663.63389.0675-.0689.20671-.21772.30179-.12953.0551.051.0289.12264.011.14469-.2012.42582-.28801.6215.04.95774.0703-.51952.0992-.66008.23564-.66422.2012-.001.26597.8723.27561 1.09003.39964-.25907.46027-.30592.33349-.94258-.0275-.11437-.01-.17914.0675-.20946.0841-.0317.15572.0248.19017.0799.0937.14469.19017.31419.24529.48783.1006-.1695.36794-.28664.0772-.99082-.0482-.0868-.04-.16123.0262-.20119.14469-.0978.34037.1447.40928.26045-.0138-.24804.10748-.55948-.28112-.9536-.0634-.0772-.0634-.13229-.011-.18466.0841-.0868.28387-.011.39274.0537" fill="#d9192e"/><g fill="#d7dee1"><path d="m136.08167 266.54633c.20946-.0413.17363.14745.41341.19293-.2012.0758-.29215-.15985-.41341-.19293"/><path d="m137.36186 265.91381c-.0785.12678-.19981.23565-.34726.2701.0661-.10887.1943-.25494.34726-.2701"/><path d="m133.08994 269.41265c-.0455-.04-.0772-.0648-.1254-.12126v-.19844c.12265.12816.25494.24253.39274.34589l.001.19292c-.0482-.0358-.0951-.0772-.14194-.11437v1.18511c-.04-.0317-.0882-.0703-.12677-.10336zm0 0"/><path d="m133.4565 269.51325c.1571.11713.23703.16674.35416.23427v.18879c-.0772-.0455-.14056-.0758-.22738-.14056l.003.3638c.0827.0551.1502.0965.20808.13091l.001.15986c-.0717-.0413-.12954-.0744-.20809-.12954l-.001.46853c.0786.051.13643.0868.24391.15021l.001.20119c-.18603-.11713-.20808-.13091-.37482-.24804v-1.37942"/><path d="m134.37565 271.35569c-.3762.20532-.59255-.64217-.4079-1.29122.0358-.12265.14608-.27975.38999.001l.001.17363c-.1943-.27699-.28939-.1943-.29628.24529-.0152.78273.16537.77033.31282.67248zm0 0"/><path d="m134.49417 270.09478c.051.0248.073.0345.1502.062v.60495c.0717.0248.14332.0469.21773.062v-.59393c.0634.0262.0937.0317.14332.0455l.001 1.38218c-.051-.0138-.0937-.0276-.14332-.0427l.001-.6215c-.073-.0221-.14745-.0469-.22048-.0717v.61461c-.0482-.0165-.0978-.04-.15021-.0634zm0 0"/><path d="m135.21764 270.33456c.0565.0152.0841.0207.12953.0317.0813.26183.18466.65044.26734.91089h.003l.001-.86128c.0469.01.0992.022.14745.0275v1.37528c-.0427-.005-.0703-.0124-.113-.0179-.0827-.2632-.20119-.62287-.28249-.88745-.001 0-.003 0-.004 0l.004.83371c-.0469-.01-.10611-.0207-.15297-.0317 0 0 .001-1.38079 0-1.38079"/><path d="m136.78309 270.47374c.0537-.004.0965-.01.15571-.0179v1.20027c.11438-.004.22738-.0234.33211-.04l-.001.18052c-.15985.0262-.32797.0469-.48644.0579zm0 0"/><path d="m138.69856 271.27852c-.29214.36793-.62701.1943-.6022-.48094.0165-.44511.226-.84887.59393-.7593l.001.18328c-.50022-.226-.46715.74001-.40652.94258.0579.18741.17639.15572.26459.0965l-.003-.41065c-.0345.0152-.0717.0345-.1061.0482l.001-.16399c.0854-.0358.17914-.0744.25631-.11989zm0 0"/><path d="m138.86806 269.87292c.0482-.0248.0909-.0496.1378-.0758l.004 1.38631c-.0468.0262-.0937.0524-.14194.0772v-1.38768"/><path d="m139.19741 269.68688c.13091-.0772.23702-.16398.35415-.2508l-.005.19292c-.0744.0551-.14332.10336-.22049.15572l.001.38448c.0813-.0469.12953-.0813.20532-.14194l-.001.16123c-.0758.0593-.12953.0992-.20395.14469l-.003.45889c.0937-.0606.16261-.11024.23978-.1695l-.001.18052c-.11575.0965-.24529.19431-.37483.27423zm0 0"/><path d="m139.6687 270.50819c.0841.0579.22738-.0992.18328-.29214-.0482-.21222-.21084-.3955-.18879-.65319 0-.004.0358-.3638.27974-.44786v.16261c-.16123.0303-.16675.21221-.16812.22048-.001.0675.0152.11438.0193.12678.0372.0992.0937.20671.13367.30317.17501.41341-.0538.76068-.25907.7593zm0 0"/><path d="m136.58603 271.17379c0 .39549-.0689.71658-.32522.7152-.23013-.001-.32522-.31971-.32522-.7152 0-.3955.0951-.71658.32522-.71658.24391 0 .32522.32108.32522.71658m-.32522-.53882c-.11851 0-.17914.25081-.17914.54571 0 .29352.0606.53192.17914.53192.11713-.001.18052-.2384.18052-.53192 0-.2949-.0634-.54708-.18052-.54571"/><path d="m137.95855 271.00704c0 .39137-.0689.71107-.32522.70831-.23013 0-.32521-.31694-.32521-.70831 0-.39136.0951-.70831.32521-.70831.24254 0 .32522.31695.32522.70831m-.32522-.5333c-.1185 0-.18052.24943-.18052.54019 0 .29077.062.52779.18052.52641.11714 0 .17915-.23564.17915-.52641 0-.29076-.062-.54019-.17915-.54019"/></g><path d="m169.11875 266.62488v-.0165c.40377-.15021.69591-.60909.69591-1.13826 0-.54571-.23702-1.39182-1.60541-1.39182h-4.67293v4.92235l-2.11666-4.92235h-2.30133l-1.81625 4.17959-1.79697-4.17959h-2.30132l-1.87964 4.32842c.0317-.13367.051-.27836.051-.43822 0-.99632-.63252-1.42351-1.68534-1.60541-.55259-.0951-1.99953-.30868-2.47495-.38723-.28388-.0482-.41893-.15848-.41893-.34865 0-.37069.34865-.55259.98117-.55259.86127 0 1.16995.26872 1.22507.65595h2.13596c-.11851-1.3367-1.35323-1.82728-3.401-1.82728-2.47496 0-2.93384 1.05282-2.93384 1.79558 0 .83785.45062 1.42352 1.61368 1.59715l1.8824.28525c.65595.10198.89297.20533.89297.50574 0 .48232-.51401.59394-.98805.59394-.98117 0-1.21819-.2701-1.26642-.69729h-2.22967c.11025 1.57372 1.49517 1.9141 3.40789 1.9141.62012 0 2.33164-.011 2.99173-.99357l-.35554.81993h2.01745l.33899-.91777h2.46807l.34038.91777h2.76572l.34038-.91777h2.46668l.34038.91777h6.22184c1.73082 0 2.04777-1.01148 2.04777-1.68396 0-.79926-.38723-1.28158-.98117-1.41524m-15.56632 1.01147.78273-2.13595h.0152l.7841 2.13595zm5.91316 0 .78273-2.13595h.0165l.78272 2.13595zm5.95175-2.34128h1.87551c.40239 0 .57602.22186.57602.47542 0 .26045-.17363.48231-.57602.48231h-1.87551zm2.02434 3.21083h-2.02434v-1.14653h2.02434c.39688 0 .66559.19017.66559.56224 0 .37069-.26871.58429-.66559.58429" fill="#0c234c"/></g></svg>