<?xml version="1.0" encoding="UTF-8" standalone="no"?>
<svg
    xmlns:dc="http://purl.org/dc/elements/1.1/"
    xmlns:cc="http://creativecommons.org/ns#"
    xmlns:rdf="http://www.w3.org/1999/02/22-rdf-syntax-ns#"
    xmlns:svg="http://www.w3.org/2000/svg"
    xmlns="http://www.w3.org/2000/svg"
    viewBox="0 0 172.56 31.626667"
    height="31.626667"
    width="172.56"
    xml:space="preserve"
    id="svg2"
    version="1.1"><metadata
     id="metadata8"><rdf:RDF><cc:Work
         rdf:about=""><dc:format>image/svg+xml</dc:format><dc:type
    rdf:resource="http://purl.org/dc/dcmitype/StillImage"/></cc:Work></rdf:RDF></metadata>
    <defs
        id="defs6"/>
    <g
        transform="matrix(1.3333333,0,0,-1.3333333,0,31.626667)"
        id="g10"><g
       transform="scale(0.1)"
       id="g12"><path
         id="path14"
         style="fill:#2a3e92;fill-opacity:1;fill-rule:nonzero;stroke:none"
         d="m 366.41,92.6016 c 4.551,-2.3282 11.535,-4.6563 18.75,-4.6563 7.766,0 11.867,3.2149 11.867,8.0977 0,4.66 -3.547,7.324 -12.531,10.543 -12.43,4.328 -20.527,11.211 -20.527,22.086 0,12.758 10.644,22.523 28.293,22.523 8.437,0 14.648,-1.777 19.09,-3.773 l -3.778,-13.649 c -3,1.446 -8.32,3.551 -15.644,3.551 -7.325,0 -10.871,-3.324 -10.871,-7.211 0,-4.773 4.211,-6.883 13.867,-10.543 13.203,-4.882 19.414,-11.761 19.414,-22.3044 0,-12.539 -9.649,-23.1953 -30.176,-23.1953 -8.543,0 -16.98,2.2188 -21.199,4.5508 l 3.445,13.9805" /><path
        id="path16"
        style="fill:#2a3e92;fill-opacity:1;fill-rule:nonzero;stroke:none"
        d="m 483.785,77.2891 c -3.117,-1.5508 -10.097,-3.2188 -19.199,-3.2188 -25.859,0 -39.18,16.0899 -39.18,37.3987 0,25.523 18.203,39.726 40.84,39.726 8.758,0 15.43,-1.777 18.418,-3.324 l -3.437,-13.433 c -3.438,1.445 -8.215,2.777 -14.2,2.777 -13.429,0 -23.867,-8.098 -23.867,-24.746 0,-14.9846 8.887,-24.4182 23.973,-24.4182 5.109,0 10.762,1.1133 14.094,2.4414 l 2.558,-13.2031"/><path
        id="path18"
        style="fill:#2a3e92;fill-opacity:1;fill-rule:nonzero;stroke:none"
        d="m 519.281,149.977 v -28.743 h 27.852 v 28.743 H 564 V 75.1797 H 547.133 V 106.473 H 519.281 V 75.1797 h -16.98 v 74.7973 h 16.98"/><path
        id="path20"
        style="fill:#2a3e92;fill-opacity:1;fill-rule:nonzero;stroke:none"
        d="M 630.699,106.805 H 603.18 V 89.0508 h 30.742 V 75.1797 h -47.715 v 74.7973 h 46.16 V 136.102 H 603.18 V 120.57 h 27.519 v -13.765"/><path
        id="path22"
        style="fill:#2a3e92;fill-opacity:1;fill-rule:nonzero;stroke:none"
        d="m 717.594,103.812 c -0.344,8.989 -0.676,19.864 -0.676,30.739 h -0.32 c -2.344,-9.547 -5.442,-20.199 -8.332,-28.965 l -9.102,-29.1837 h -13.203 l -7.988,28.9647 c -2.442,8.762 -4.989,19.418 -6.766,29.184 h -0.227 c -0.437,-10.098 -0.781,-21.641 -1.328,-30.961 l -1.336,-28.4103 h -15.644 l 4.773,74.7973 h 22.52 l 7.336,-24.973 c 2.324,-8.652 4.656,-17.973 6.316,-26.7384 h 0.332 c 2.11,8.6524 4.66,18.5314 7.11,26.8514 l 7.988,24.86 h 22.082 l 4.101,-74.7973 h -16.535 l -1.101,28.6323"/><path
        id="path24"
        style="fill:#2a3e92;fill-opacity:1;fill-rule:nonzero;stroke:none"
        d="m 773.844,115.02 c 1.445,-0.332 3.222,-0.446 5.664,-0.446 8.984,0 14.531,4.551 14.531,12.207 0,6.879 -4.766,10.989 -13.203,10.989 -3.438,0 -5.774,-0.332 -6.992,-0.665 z m -16.758,33.96 c 5.223,0.887 12.539,1.551 22.859,1.551 10.43,0 17.871,-1.996 22.864,-5.996 4.765,-3.769 7.988,-9.984 7.988,-17.308 0,-7.325 -2.442,-13.539 -6.875,-17.754 -5.774,-5.442 -14.317,-7.883 -24.309,-7.883 -2.215,0 -4.218,0.113 -5.769,0.34 V 75.1797 H 757.086 V 148.98"/><path
        id="path26"
        style="fill:#2a3e92;fill-opacity:1;fill-rule:nonzero;stroke:none"
        d="m 842.848,115.02 c 1.433,-0.332 3.211,-0.446 5.652,-0.446 8.984,0 14.543,4.551 14.543,12.207 0,6.879 -4.777,10.989 -13.203,10.989 -3.449,0 -5.781,-0.332 -6.992,-0.665 z m -16.758,33.96 c 5.215,0.887 12.539,1.551 22.851,1.551 10.438,0 17.871,-1.996 22.86,-5.996 4.777,-3.769 8,-9.984 8,-17.308 0,-7.325 -2.453,-13.539 -6.887,-17.754 -5.769,-5.442 -14.316,-7.883 -24.305,-7.883 -2.218,0 -4.211,0.113 -5.761,0.34 V 75.1797 H 826.09 V 148.98"/><path
        id="path28"
        style="fill:#2a3e92;fill-opacity:1;fill-rule:nonzero;stroke:none"
        d="m 898.336,106.473 h 48.8281 v 10.4297 H 898.336 Z"/><path
        id="path30"
        style="fill:#2a3e92;fill-opacity:1;fill-rule:nonzero;stroke:none"
        d="m 985.121,149.977 v -28.743 h 27.849 v 28.743 h 16.87 V 75.1797 h -16.87 V 106.473 H 985.121 V 75.1797 h -16.98 v 74.7973 h 16.98"/><path
        id="path32"
        style="fill:#2a3e92;fill-opacity:1;fill-rule:nonzero;stroke:none"
        d="m 1053.47,75.1797 h 16.9805 v 74.7969 H 1053.47 Z"/><path
        id="path34"
        style="fill:#2a3e92;fill-opacity:1;fill-rule:nonzero;stroke:none"
        d="m 1110.73,116.797 h 6.66 c 8.44,0 13.43,4.215 13.43,10.762 0,6.879 -4.66,10.32 -12.43,10.433 -4.11,0 -6.44,-0.336 -7.66,-0.554 z m -16.76,32.183 c 5.44,0.887 13.53,1.551 22.53,1.551 11.1,0 18.87,-1.664 24.19,-5.883 4.44,-3.55 6.88,-8.765 6.88,-15.648 0,-9.543 -6.76,-16.09 -13.2,-18.418 v -0.332 c 5.21,-2.109 8.1,-7.102 9.98,-13.9844 2.33,-8.4336 4.66,-18.1992 6.1,-21.0859 h -17.3 c -1.22,2.1094 -3,8.2148 -5.22,17.4219 -2,9.3284 -5.22,11.8754 -12.1,11.9884 h -5.1 V 75.1797 h -16.76 V 148.98"/><path
        id="path36"
        style="fill:#2a3e92;fill-opacity:1;fill-rule:nonzero;stroke:none"
        d="m 1180.18,135.77 h -20.09 v 14.207 h 57.48 V 135.77 h -20.42 V 75.1797 h -16.97 V 135.77"/><path
        id="path38"
        style="fill:#2a3e92;fill-opacity:1;fill-rule:nonzero;stroke:none"
        d="m 1249.52,149.977 v -28.743 h 27.85 v 28.743 h 16.86 V 75.1797 h -16.86 v 31.2933 h -27.85 V 75.1797 h -16.99 v 74.7973 h 16.99"/><path
        id="path40"
        style="fill:#bdbcbc;fill-opacity:1;fill-rule:nonzero;stroke:none"
        d="M 192.574,225.926 C 130.18,225.926 79.6094,175.355 79.6094,112.965 79.6094,50.5703 130.18,0 192.574,0 c 62.383,0 112.957,50.5703 112.957,112.965 0,62.39 -50.574,112.961 -112.957,112.961 z m 0,-11.434 c 55.977,0 101.524,-45.547 101.524,-101.527 0,-55.9845 -45.547,-101.5314 -101.524,-101.5314 -55.98,0 -101.531,45.5469 -101.531,101.5314 0,55.98 45.551,101.527 101.531,101.527"/><path
        id="path42"
        style="fill:#2a3e92;fill-opacity:1;fill-rule:nonzero;stroke:none"
        d="m 226.859,91.7656 c 3.832,-1.7617 -14.464,-12.414 -10.828,-14.0625 2.578,-1.1601 10.918,0.0977 19.031,1.3438 7.629,1.1836 15.051,2.375 17.141,1.5078 9.414,-3.8555 16.524,-6.1914 18.887,-5.4609 1.816,0.5546 -1.973,3.832 -8.731,8.496 -3.496,2.4493 16.075,24.3052 11.348,27.3242 -1.699,1.09 -9.414,-2.516 -17.148,-6.141 -7.793,-3.64 -15.645,-7.2964 -17.5,-6.1246 -20.86,13.0706 -43.668,27.0116 -41.379,28.8746 31.828,25.797 173.976,96.204 174.172,107.825 v 0.058 c 0,0.16 -0.059,0.313 -0.098,0.453 -0.41,0.942 -1.68,1.371 -3.75,1.371 -14.805,0 -70.02,-22.886 -140.617,-52.015 -13.539,-5.617 -38.078,-23.813 -60.297,-37.594 -2.692,-1.664 -11.078,-0.433 -19.324,0.801 -7.996,1.207 -15.856,2.394 -18.262,0.957 -7.938,-4.789 9.812,-14.594 4.383,-17.734 C 108.539,117.035 98.9258,124.027 87.5625,115.297 38.8125,77.7812 0.203125,47.6211 0,39.2812 v -0.1171 c 0.0117188,-0.2813 0.0585938,-0.5508 0.167969,-0.7813 0.21875,-0.4922 0.8125,-0.7422 1.746091,-0.7422 H 2.04688 C 17.8828,37.8086 124.496,101.363 169.711,116.176 c 3.551,1.144 31.41,-12.5 57.148,-24.4104"/></g></g></svg>
