<?xml version="1.0" encoding="UTF-8" standalone="no"?>
<svg
   xmlns:dc="http://purl.org/dc/elements/1.1/"
   xmlns:cc="http://creativecommons.org/ns#"
   xmlns:rdf="http://www.w3.org/1999/02/22-rdf-syntax-ns#"
   xmlns:svg="http://www.w3.org/2000/svg"
   xmlns="http://www.w3.org/2000/svg"
   version="1.0"
   width="580"
   height="580"
   id="svg2459">
  <metadata
     id="metadata8">
    <rdf:RDF>
      <cc:Work
         rdf:about="">
        <dc:format>image/svg+xml</dc:format>
        <dc:type
           rdf:resource="http://purl.org/dc/dcmitype/StillImage" />
        <dc:title></dc:title>
      </cc:Work>
    </rdf:RDF>
  </metadata>
  <defs
     id="defs2472" />
  <path
     d="M 66.275,1.767 C 24.94,1.767 1.704,23.138 1.704,66.803 L 1.704,516.925 C 1.704,557.768 22.595,579.153 63.896,579.153 L 515.92,579.153 C 557.223,579.153 578.146,558.833 578.146,516.925 L 578.146,66.803 C 578.146,24.203 557.223,1.767 514.623,1.767 C 514.623,1.767 66.132,1.625 66.275,1.767 z"
     id="path2465"
     style="stroke:#000000;stroke-width:6.508;stroke-miterlimit:10;fill:#3ab500;fill-opacity:1;stroke-opacity:1;stroke-dasharray:none" />
  <path
     d="M 265.007,82.479 C 265.067,48.479 316.316,48.478 316.282,83.437 L 316.282,226.128 L 516.046,346.193 L 516.046,398.91 L 317.241,333.479 L 317.241,440.126 L 363.249,476.07 L 363.249,517.764 L 292.322,495.719 L 221.395,517.764 L 221.395,476.07 L 266.924,440.126 L 266.924,333.479 L 68.097,398.91 L 68.097,346.193 L 265.007,226.128 L 265.007,82.479 z"
     id="path2469"
     style="fill:#ffffff" />
</svg>
