<?xml version="1.0" encoding="UTF-8" standalone="no"?>
<svg
   xmlns:dc="http://purl.org/dc/elements/1.1/"
   xmlns:cc="http://creativecommons.org/ns#"
   xmlns:rdf="http://www.w3.org/1999/02/22-rdf-syntax-ns#"
   xmlns:svg="http://www.w3.org/2000/svg"
   xmlns="http://www.w3.org/2000/svg"
   width="172.44516mm"
   height="21.457899mm"
   viewBox="0 0 172.44516 21.457899"
   version="1.1"
   id="svg8">
  <defs
     id="defs2" />
  <metadata
     id="metadata5">
    <rdf:RDF>
      <cc:Work
         rdf:about="">
        <dc:format>image/svg+xml</dc:format>
        <dc:type
           rdf:resource="http://purl.org/dc/dcmitype/StillImage" />
        <dc:title></dc:title>
      </cc:Work>
    </rdf:RDF>
  </metadata>
  <g
     id="layer1"
     transform="translate(-20.590413,-28.818532)">
    <g
       aria-label="FLIGHTBOOK"
       id="text12"
       style="font-style:normal;font-variant:normal;font-weight:normal;font-stretch:normal;font-size:28.083px;line-height:1.25;font-family:Stencil;-inkscape-font-specification:Stencil;fill:#000000;fill-opacity:1;stroke:none;stroke-width:0.702075">
      <path
         d="M 29.077385,30.188767 V 46.30084 q 0,0.534784 0.205686,0.767895 0.109699,0.137124 0.205686,0.178261 0.09599,0.02742 0.63077,0.164549 0.658195,0.150836 0.658195,0.754182 0,0.356522 -0.356522,0.575921 -0.260536,0.164549 -0.863881,0.164549 h -0.466222 -6.115732 -0.356522 q -0.493647,0 -0.767895,-0.178262 -0.260535,-0.191973 -0.260535,-0.534783 0,-0.562209 0.548496,-0.74047 0.452509,-0.150836 0.521071,-0.178261 0.08227,-0.04114 0.164549,-0.164549 0.164549,-0.219399 0.164549,-0.699333 V 32.684425 q 0,-0.479935 -0.164549,-0.699333 -0.08227,-0.123412 -0.164549,-0.150836 -0.06856,-0.04114 -0.521071,-0.191974 -0.548496,-0.178261 -0.548496,-0.74047 0,-0.34281 0.260535,-0.521071 0.274248,-0.191974 0.767895,-0.191974 h 0.356522 z m 1.206691,0 h 5.526098 v 4.785629 q 0,0.466221 -0.164549,0.671907 -0.164549,0.205686 -0.534783,0.205686 -0.274248,0 -0.438797,-0.137124 -0.150837,-0.150836 -0.260536,-0.493646 -0.205686,-0.671908 -0.534784,-1.234116 -0.329097,-0.562209 -0.740469,-0.959868 -0.562209,-0.548497 -1.234117,-0.836457 -0.671907,-0.28796 -1.618063,-0.39766 z m -0.06856,9.982629 v -1.590638 q 0.809032,-0.383948 1.179267,-0.822745 0.383947,-0.452509 0.562208,-1.220403 0.109699,-0.521072 0.28796,-0.713045 0.178262,-0.205686 0.507359,-0.205686 0.438797,0 0.603346,0.34281 0.09599,0.178261 0.09599,0.809031 v 5.224426 q 0,0.644483 -0.150837,0.891306 -0.137124,0.246823 -0.521071,0.246823 -0.315385,0 -0.493646,-0.191973 -0.178262,-0.191974 -0.287961,-0.644483 -0.246823,-0.946156 -0.671907,-1.453515 -0.425085,-0.507359 -1.110705,-0.671908 z"
         style="font-style:normal;font-variant:normal;font-weight:normal;font-stretch:normal;font-family:Stencil;-inkscape-font-specification:Stencil;stroke-width:0.702075"
         id="path14" />
      <path
         d="m 44.983771,48.906197 h -6.102019 -0.356523 q -0.493646,0 -0.767894,-0.178262 -0.260536,-0.191973 -0.260536,-0.534783 0,-0.562209 0.548496,-0.74047 0.45251,-0.150836 0.521072,-0.178261 0.08227,-0.04114 0.164548,-0.164549 0.164549,-0.219399 0.164549,-0.699333 V 32.684425 q 0,-0.479935 -0.164549,-0.699333 -0.08227,-0.123412 -0.164548,-0.150836 -0.06856,-0.04114 -0.521072,-0.191974 -0.548496,-0.178261 -0.548496,-0.74047 0,-0.34281 0.260536,-0.521071 0.274248,-0.191974 0.767894,-0.191974 h 0.356523 6.115731 0.466222 q 0.603346,0 0.863881,0.164549 0.356523,0.219399 0.356523,0.575921 0,0.603346 -0.658196,0.754182 -0.534783,0.123412 -0.63077,0.164549 -0.09599,0.04114 -0.205686,0.164549 -0.205686,0.246823 -0.205686,0.767894 z m 1.110704,0 v -1.535789 q 0.671908,-0.123412 1.055855,-0.274249 0.39766,-0.150836 0.754183,-0.438796 0.575921,-0.45251 1.055855,-1.247829 0.479934,-0.795319 0.781607,-1.7689 0.219398,-0.754182 0.397659,-0.987293 0.191974,-0.246823 0.548496,-0.246823 0.383948,0 0.562209,0.315385 0.08227,0.150837 0.08227,0.603346 v 5.580948 z"
         style="font-style:normal;font-variant:normal;font-weight:normal;font-stretch:normal;font-family:Stencil;-inkscape-font-specification:Stencil;stroke-width:0.702075"
         id="path16" />
      <path
         d="M 59.957714,48.906197 H 53.841983 53.48546 q -0.493646,0 -0.767894,-0.178262 -0.260536,-0.191973 -0.260536,-0.534783 0,-0.562209 0.548496,-0.74047 0.452509,-0.150836 0.521071,-0.178261 0.08227,-0.04114 0.164549,-0.164549 0.164549,-0.219399 0.164549,-0.699333 V 32.684425 q 0,-0.479935 -0.164549,-0.699333 -0.08227,-0.123412 -0.164549,-0.150836 -0.06856,-0.04114 -0.521071,-0.191974 -0.548496,-0.178261 -0.548496,-0.74047 0,-0.34281 0.260536,-0.521071 0.274248,-0.191974 0.767894,-0.191974 h 0.356523 6.115731 0.356523 q 0.493646,0 0.754182,0.191974 0.274248,0.178261 0.274248,0.521071 0,0.562209 -0.548496,0.74047 -0.45251,0.150836 -0.534784,0.191974 -0.06856,0.02742 -0.150836,0.150836 -0.164549,0.219398 -0.164549,0.699333 v 13.726114 q 0,0.479934 0.164549,0.699333 0.08227,0.123411 0.150836,0.164549 0.08227,0.02743 0.534784,0.178261 0.548496,0.178261 0.548496,0.74047 0,0.34281 -0.274248,0.534783 -0.260536,0.178262 -0.754182,0.178262 z"
         style="font-style:normal;font-variant:normal;font-weight:normal;font-stretch:normal;font-family:Stencil;-inkscape-font-specification:Stencil;stroke-width:0.702075"
         id="path18" />
      <path
         d="m 70.735662,29.818532 v 1.522077 Q 69.52897,31.62857 69.52897,33.260345 v 12.766247 q 0,0.74047 0.205686,1.138129 0.178261,0.329098 0.754182,0.562209 v 1.549501 q -0.438796,0 -0.809031,-0.06856 -0.356523,-0.06856 -0.959869,-0.274248 -1.439802,-0.493646 -2.605356,-1.508364 -1.165554,-1.014718 -1.919736,-2.427095 -1.165555,-2.207697 -1.165555,-5.224425 0,-2.920742 1.042143,-5.183289 1.042143,-2.262546 2.989304,-3.551512 1.124417,-0.754182 2.413383,-1.08328 0.534783,-0.137124 1.261541,-0.137124 z m 1.124417,1.494652 v -1.480939 q 2.235121,0.205686 3.674923,0.822744 0.425085,0.191974 0.658196,0.191974 0.219398,0 0.329097,-0.09599 0.123412,-0.109699 0.479935,-0.589634 0.246823,-0.34281 0.617058,-0.34281 0.383947,0 0.534783,0.219399 0.164549,0.205686 0.164549,0.699332 v 5.334125 q 0,1.042143 -0.767894,1.042143 -0.383948,0 -0.575921,-0.205687 -0.178261,-0.205686 -0.34281,-0.809031 -0.205686,-0.767895 -0.74047,-1.782613 -0.534784,-1.02843 -1.02843,-1.618063 -0.562209,-0.68562 -1.261541,-1.001005 -0.699333,-0.329098 -1.741475,-0.383948 z m 6.198006,15.303041 q -0.548497,0.548496 -1.467228,1.124417 -0.905018,0.562209 -1.71405,0.891307 -0.74047,0.28796 -1.645488,0.466221 -0.891306,0.178261 -1.576926,0.178261 V 47.72693 q 0.397659,-0.09599 0.589633,-0.233111 0.205686,-0.137124 0.34281,-0.383947 0.233111,-0.425085 0.233111,-1.08328 v -4.004021 q 0,-0.534784 -0.205686,-0.767895 -0.09599,-0.137124 -0.191974,-0.164549 -0.09599,-0.04114 -0.63077,-0.164549 -0.658196,-0.164548 -0.658196,-0.767894 0,-0.356523 0.301673,-0.548496 0.315385,-0.191974 0.918731,-0.191974 h 0.452509 5.01874 q 0.617058,0 0.863881,0.178261 0.260536,0.164549 0.260536,0.589634 0,0.260535 -0.1097,0.438797 -0.09599,0.164548 -0.370234,0.356522 -0.274248,0.191974 -0.34281,0.356522 -0.06856,0.164549 -0.06856,0.603346 z"
         style="font-style:normal;font-variant:normal;font-weight:normal;font-stretch:normal;font-family:Stencil;-inkscape-font-specification:Stencil;stroke-width:0.702075"
         id="path20" />
      <path
         d="m 89.946739,38.663032 h 2.235122 v -5.978607 q 0,-0.767895 -0.39766,-0.905019 l -0.438797,-0.137124 q -0.521071,-0.164549 -0.521071,-0.74047 0,-0.713045 0.987293,-0.713045 h 0.356523 6.102019 0.370234 q 1.028431,0 1.028431,0.713045 0,0.562209 -0.548496,0.74047 -0.45251,0.150836 -0.534784,0.191974 -0.06856,0.02742 -0.150837,0.150836 -0.164548,0.219398 -0.164548,0.699333 V 46.35569 q 0,0.754182 0.411372,0.918731 l 0.438797,0.150836 q 0.548496,0.178261 0.548496,0.754182 0,0.726758 -1.028431,0.726758 h -0.370234 -6.102019 -0.383948 q -0.959868,0 -0.959868,-0.726758 0,-0.575921 0.521071,-0.754182 l 0.438797,-0.150836 q 0.39766,-0.123412 0.39766,-0.918731 v -6.33513 h -2.235122 z m -1.151841,10.243165 h -6.115732 -0.356522 q -0.493647,0 -0.767895,-0.178262 -0.260536,-0.191973 -0.260536,-0.534783 0,-0.562209 0.548496,-0.74047 0.45251,-0.150836 0.521072,-0.178261 0.08227,-0.04114 0.164549,-0.164549 0.164548,-0.219399 0.164548,-0.699333 V 32.684425 q 0,-0.479935 -0.164548,-0.699333 -0.08227,-0.123412 -0.164549,-0.150836 -0.06856,-0.04114 -0.521072,-0.191974 -0.548496,-0.178261 -0.548496,-0.74047 0,-0.34281 0.260536,-0.521071 0.274248,-0.191974 0.767895,-0.191974 h 0.356522 6.115732 0.356522 q 0.973581,0 0.973581,0.713045 0,0.575921 -0.521072,0.74047 l -0.425084,0.137124 q -0.39766,0.137124 -0.39766,0.905019 v 13.726114 q 0,0.767895 0.39766,0.905019 l 0.425084,0.137124 q 0.521072,0.164549 0.521072,0.74047 0,0.713045 -0.973581,0.713045 z"
         style="font-style:normal;font-variant:normal;font-weight:normal;font-stretch:normal;font-family:Stencil;-inkscape-font-specification:Stencil;stroke-width:0.702075"
         id="path22" />
      <path
         d="M 112.44879,30.188767 V 46.30084 q 0,0.534784 0.20568,0.767895 0.1097,0.137124 0.20569,0.178261 0.096,0.02742 0.63077,0.164549 0.6582,0.150836 0.6582,0.754182 0,0.356522 -0.35653,0.575921 -0.26053,0.164549 -0.87759,0.164549 h -0.45251 -6.11573 -0.45251 q -0.60335,0 -0.91873,-0.178262 -0.30167,-0.191973 -0.30167,-0.562208 0,-0.603346 0.65819,-0.754182 0.53479,-0.137124 0.63077,-0.164549 0.096,-0.04114 0.19198,-0.178261 0.20568,-0.233111 0.20568,-0.767895 V 30.188767 Z m 4.74449,0 v 5.608373 q 0,0.39766 -0.23311,0.644483 -0.2194,0.246823 -0.57592,0.246823 -0.34281,0 -0.57592,-0.219398 -0.2194,-0.233111 -0.28796,-0.630771 l -0.13713,-0.836456 q -0.20568,-1.275254 -0.79532,-2.207697 -0.37023,-0.575921 -1.001,-0.946156 v -1.659201 z m -15.54986,0 h 3.60636 v 1.659201 q -0.64449,0.370235 -1.00101,0.946156 -0.58963,0.932443 -0.79532,2.207697 l -0.13712,0.836456 q -0.0686,0.39766 -0.30167,0.630771 -0.2194,0.219398 -0.56221,0.219398 -0.35652,0 -0.58964,-0.246823 -0.21939,-0.246823 -0.21939,-0.644483 z"
         style="font-style:normal;font-variant:normal;font-weight:normal;font-stretch:normal;font-family:Stencil;-inkscape-font-specification:Stencil;stroke-width:0.702075"
         id="path24" />
      <path
         d="m 126.36688,30.188767 v 18.71743 h -6.10202 -0.35652 q -0.49365,0 -0.76789,-0.178262 -0.26054,-0.191973 -0.26054,-0.534783 0,-0.562209 0.5485,-0.74047 0.45251,-0.150836 0.52107,-0.178261 0.0823,-0.04114 0.16455,-0.164549 0.16455,-0.219399 0.16455,-0.699333 V 32.684425 q 0,-0.479935 -0.16455,-0.699333 -0.0823,-0.123412 -0.16455,-0.150836 -0.0686,-0.04114 -0.52107,-0.191974 -0.5485,-0.178261 -0.5485,-0.74047 0,-0.34281 0.26054,-0.521071 0.27424,-0.191974 0.76789,-0.191974 h 0.35652 z m 4.26456,9.022761 q 1.23412,0.246823 1.89231,0.479934 0.67191,0.233111 1.20669,0.589633 0.91873,0.589634 1.39867,1.563214 0.49364,0.959869 0.49364,2.152848 0,2.34482 -1.72776,3.661211 -0.89131,0.68562 -1.97459,0.973581 -1.06956,0.274248 -2.81104,0.274248 h -1.63177 v -1.439803 q 0.54849,-0.04114 0.86388,-0.150836 0.31538,-0.123412 0.56221,-0.39766 0.45251,-0.507359 0.45251,-1.576926 v -3.112715 q 0,-0.685621 -0.12342,-1.069568 -0.1097,-0.383947 -0.42508,-0.699332 -0.23311,-0.246824 -0.50736,-0.356523 -0.27425,-0.109699 -0.78161,-0.178261 v -1.42609 q 0.50736,-0.04114 0.78161,-0.137124 0.28796,-0.09599 0.52107,-0.315385 0.2194,-0.205686 0.37024,-0.534784 0.15083,-0.329097 0.16455,-0.603346 v -0.754182 -2.372245 q 0,-0.370235 -0.12342,-0.767895 -0.12341,-0.411372 -0.30167,-0.644483 -0.26053,-0.315385 -0.58963,-0.466221 -0.31539,-0.150837 -0.86388,-0.205686 v -1.508365 h 1.57692 q 3.12643,0 4.77192,1.288966 0.75418,0.589633 1.15184,1.42609 0.39766,0.836457 0.39766,1.810037 0,0.959868 -0.41137,1.810037 -0.39766,0.850169 -1.12442,1.412378 -0.53478,0.438797 -1.23412,0.713045 -0.69933,0.274248 -1.97458,0.562208 z"
         style="font-style:normal;font-variant:normal;font-weight:normal;font-stretch:normal;font-family:Stencil;-inkscape-font-specification:Stencil;stroke-width:0.702075"
         id="path26" />
      <path
         d="m 144.89233,31.299472 q -0.69933,0.246823 -0.98729,0.671908 -0.28796,0.425084 -0.28796,1.247828 v 12.258888 q 0,1.206691 0.3291,1.700338 0.26053,0.411372 0.94615,0.589633 v 1.508364 q -3.04415,-0.246823 -5.10101,-2.289971 -2.67392,-2.660206 -2.67392,-7.418409 0,-2.385958 0.69933,-4.305695 0.71305,-1.933449 2.098,-3.277264 1.05585,-1.02843 2.27626,-1.563214 1.2204,-0.534784 2.70134,-0.603346 z m 1.12442,0 v -1.48094 q 1.48094,0.06856 2.70134,0.603346 1.23412,0.534784 2.28997,1.563214 2.79733,2.728768 2.79733,7.582959 0,4.758203 -2.67392,7.418409 -2.05686,2.056861 -5.11472,2.289971 v -1.508364 q 0.35652,-0.08227 0.54849,-0.205686 0.20569,-0.137124 0.37024,-0.383947 0.37023,-0.562209 0.37023,-1.700338 V 33.219208 q 0,-0.726757 -0.24682,-1.151842 -0.16455,-0.28796 -0.39766,-0.452509 -0.2194,-0.164549 -0.64448,-0.315385 z"
         style="font-style:normal;font-variant:normal;font-weight:normal;font-stretch:normal;font-family:Stencil;-inkscape-font-specification:Stencil;stroke-width:0.702075"
         id="path28" />
      <path
         d="m 162.70475,31.299472 q -0.69933,0.246823 -0.9873,0.671908 -0.28796,0.425084 -0.28796,1.247828 v 12.258888 q 0,1.206691 0.3291,1.700338 0.26054,0.411372 0.94616,0.589633 v 1.508364 q -3.04416,-0.246823 -5.10102,-2.289971 -2.67391,-2.660206 -2.67391,-7.418409 0,-2.385958 0.69933,-4.305695 0.71304,-1.933449 2.098,-3.277264 1.05585,-1.02843 2.27625,-1.563214 1.22041,-0.534784 2.70135,-0.603346 z m 1.12441,0 v -1.48094 q 1.48094,0.06856 2.70135,0.603346 1.23411,0.534784 2.28997,1.563214 2.79733,2.728768 2.79733,7.582959 0,4.758203 -2.67392,7.418409 -2.05686,2.056861 -5.11473,2.289971 v -1.508364 q 0.35653,-0.08227 0.5485,-0.205686 0.20569,-0.137124 0.37024,-0.383947 0.37023,-0.562209 0.37023,-1.700338 V 33.219208 q 0,-0.726757 -0.24682,-1.151842 -0.16455,-0.28796 -0.39766,-0.452509 -0.2194,-0.164549 -0.64449,-0.315385 z"
         style="font-style:normal;font-variant:normal;font-weight:normal;font-stretch:normal;font-family:Stencil;-inkscape-font-specification:Stencil;stroke-width:0.702075"
         id="path30" />
      <path
         d="m 181.09308,48.906197 h -6.11573 -0.35653 q -0.49364,0 -0.76789,-0.178262 -0.26054,-0.191973 -0.26054,-0.534783 0,-0.562209 0.5485,-0.74047 0.45251,-0.150836 0.52107,-0.178261 0.0823,-0.04114 0.16455,-0.164549 0.16455,-0.219399 0.16455,-0.699333 V 32.684425 q 0,-0.479935 -0.16455,-0.699333 -0.0823,-0.123412 -0.16455,-0.150836 -0.0686,-0.04114 -0.52107,-0.191974 -0.5485,-0.178261 -0.5485,-0.74047 0,-0.34281 0.26054,-0.521071 0.27425,-0.191974 0.76789,-0.191974 h 0.35653 6.11573 0.35652 q 0.49365,0 0.75418,0.191974 0.27425,0.178261 0.27425,0.521071 0,0.562209 -0.5485,0.74047 -0.45251,0.150836 -0.53478,0.191974 -0.0686,0.02742 -0.15084,0.150836 -0.16455,0.219398 -0.16455,0.699333 v 13.726114 q 0,0.767895 0.39766,0.905019 l 0.42509,0.137124 q 0.52107,0.164549 0.52107,0.74047 0,0.713045 -0.97358,0.713045 z m 5.43011,-13.287318 4.14114,10.832798 q 0.16455,0.438796 0.34281,0.671907 0.17827,0.219399 0.46623,0.34281 0.28796,0.137124 0.37023,0.205686 0.19197,0.191974 0.19197,0.507359 0,0.726758 -1.02843,0.726758 h -6.89733 q -0.49365,0 -0.7679,-0.205686 -0.26053,-0.205686 -0.26053,-0.589634 0,-0.438797 0.50735,-0.68562 0.31539,-0.150836 0.42509,-0.246823 0.1097,-0.109699 0.12341,-0.287961 0,-0.09599 -0.1097,-0.438796 l -1.75519,-5.238138 q -0.24682,-0.726757 -0.24682,-1.234116 0,-0.479934 0.39766,-1.042143 l 3.27726,-4.62108 q 0.46623,-0.644483 0.46623,-1.343815 0,-0.383947 -0.20569,-0.713045 -0.20569,-0.329098 -0.5485,-0.466222 l -0.49364,-0.205686 q -0.46622,-0.191973 -0.46622,-0.644483 0,-0.370234 0.28796,-0.603345 0.19197,-0.150837 0.63077,-0.150837 h 4.88161 q 0.47994,0 0.74047,0.219399 0.27425,0.205686 0.27425,0.589633 0,0.575921 -0.63077,0.822744 l -0.72676,0.287961 q -0.45251,0.164548 -1.15184,0.740469 -0.52107,0.438797 -1.28897,1.467227 z"
         style="font-style:normal;font-variant:normal;font-weight:normal;font-stretch:normal;font-family:Stencil;-inkscape-font-specification:Stencil;stroke-width:0.702075"
         id="path32" />
    </g>
  </g>
</svg>
